<mxfile host="Electron" agent="Mozilla/5.0 (Windows NT 10.0; Win64; x64) AppleWebKit/537.36 (KHTML, like Gecko) draw.io/25.0.2 Chrome/128.0.6613.186 Electron/32.2.5 Safari/537.36" version="25.0.2">
  <diagram name="Страница — 1" id="C-drUPW33x2Zt6dfCn86">
    <mxGraphModel dx="1122" dy="723" grid="1" gridSize="10" guides="1" tooltips="1" connect="1" arrows="1" fold="1" page="1" pageScale="1" pageWidth="827" pageHeight="1169" math="0" shadow="0">
      <root>
        <mxCell id="0" />
        <mxCell id="1" parent="0" />
        <mxCell id="ZeF7QtXfyFgrB-SFNSUF-2" style="edgeStyle=orthogonalEdgeStyle;rounded=0;orthogonalLoop=1;jettySize=auto;html=1;" edge="1" parent="1" source="6_Jl2t81EVsBpzzJ7YuF-1" target="6_Jl2t81EVsBpzzJ7YuF-2">
          <mxGeometry relative="1" as="geometry" />
        </mxCell>
        <mxCell id="6_Jl2t81EVsBpzzJ7YuF-1" value="Начало" style="ellipse;whiteSpace=wrap;html=1;" parent="1" vertex="1">
          <mxGeometry x="80" width="120" height="40" as="geometry" />
        </mxCell>
        <mxCell id="ZeF7QtXfyFgrB-SFNSUF-3" style="edgeStyle=orthogonalEdgeStyle;rounded=0;orthogonalLoop=1;jettySize=auto;html=1;" edge="1" parent="1" source="6_Jl2t81EVsBpzzJ7YuF-2" target="jJISwFBYpWY-wKHQtZQK-2">
          <mxGeometry relative="1" as="geometry" />
        </mxCell>
        <mxCell id="6_Jl2t81EVsBpzzJ7YuF-2" value="double g(double x)" style="shape=process;whiteSpace=wrap;html=1;backgroundOutline=1;" parent="1" vertex="1">
          <mxGeometry x="75" y="70" width="130" height="50" as="geometry" />
        </mxCell>
        <mxCell id="6_Jl2t81EVsBpzzJ7YuF-36" value="{" style="text;html=1;align=center;verticalAlign=middle;whiteSpace=wrap;rounded=0;" parent="1" vertex="1">
          <mxGeometry x="100" y="130" width="60" height="20" as="geometry" />
        </mxCell>
        <mxCell id="jJISwFBYpWY-wKHQtZQK-2" value="return (log(2 * exp(x) + 1)) / 2;" style="ellipse;whiteSpace=wrap;html=1;" parent="1" vertex="1">
          <mxGeometry x="50" y="160" width="180" height="50" as="geometry" />
        </mxCell>
        <mxCell id="jJISwFBYpWY-wKHQtZQK-3" value="}" style="text;html=1;align=center;verticalAlign=middle;whiteSpace=wrap;rounded=0;" parent="1" vertex="1">
          <mxGeometry x="120" y="210" width="60" height="20" as="geometry" />
        </mxCell>
        <mxCell id="ZeF7QtXfyFgrB-SFNSUF-5" style="edgeStyle=orthogonalEdgeStyle;rounded=0;orthogonalLoop=1;jettySize=auto;html=1;" edge="1" parent="1" source="ZeF7QtXfyFgrB-SFNSUF-1" target="ZeF7QtXfyFgrB-SFNSUF-6">
          <mxGeometry relative="1" as="geometry">
            <mxPoint x="380" y="80" as="targetPoint" />
          </mxGeometry>
        </mxCell>
        <mxCell id="ZeF7QtXfyFgrB-SFNSUF-1" value="Начало" style="ellipse;whiteSpace=wrap;html=1;" vertex="1" parent="1">
          <mxGeometry x="320" width="120" height="40" as="geometry" />
        </mxCell>
        <mxCell id="ZeF7QtXfyFgrB-SFNSUF-11" style="edgeStyle=orthogonalEdgeStyle;rounded=0;orthogonalLoop=1;jettySize=auto;html=1;entryX=0.5;entryY=0;entryDx=0;entryDy=0;" edge="1" parent="1" source="ZeF7QtXfyFgrB-SFNSUF-6" target="ZeF7QtXfyFgrB-SFNSUF-8">
          <mxGeometry relative="1" as="geometry" />
        </mxCell>
        <mxCell id="ZeF7QtXfyFgrB-SFNSUF-6" value="double f(double x)" style="shape=process;whiteSpace=wrap;html=1;backgroundOutline=1;" vertex="1" parent="1">
          <mxGeometry x="315" y="70" width="130" height="50" as="geometry" />
        </mxCell>
        <mxCell id="ZeF7QtXfyFgrB-SFNSUF-8" value="return exp(x) - exp(-x) - 2;" style="ellipse;whiteSpace=wrap;html=1;" vertex="1" parent="1">
          <mxGeometry x="290" y="160" width="180" height="50" as="geometry" />
        </mxCell>
        <mxCell id="ZeF7QtXfyFgrB-SFNSUF-9" value="{" style="text;html=1;align=center;verticalAlign=middle;whiteSpace=wrap;rounded=0;" vertex="1" parent="1">
          <mxGeometry x="340" y="130" width="60" height="20" as="geometry" />
        </mxCell>
        <mxCell id="ZeF7QtXfyFgrB-SFNSUF-13" value="}" style="text;html=1;align=center;verticalAlign=middle;whiteSpace=wrap;rounded=0;" vertex="1" parent="1">
          <mxGeometry x="360" y="210" width="60" height="20" as="geometry" />
        </mxCell>
      </root>
    </mxGraphModel>
  </diagram>
</mxfile>
